<?xml version="1.0" encoding="UTF-8" standalone="no"?>
<!DOCTYPE svg PUBLIC "-//W3C//DTD SVG 1.1//EN" "http://www.w3.org/Graphics/SVG/1.1/DTD/svg11.dtd">
<svg width="100%" height="100%" viewBox="0 0 1193 615" version="1.1" xmlns="http://www.w3.org/2000/svg" xmlns:xlink="http://www.w3.org/1999/xlink" xml:space="preserve" xmlns:serif="http://www.serif.com/" style="fill-rule:evenodd;clip-rule:evenodd;stroke-linejoin:round;stroke-miterlimit:2;">
    <g transform="matrix(1,0,0,1,-954.948,-225.454)">
        <g transform="matrix(41.6667,0,0,41.6667,1094.32,279.526)">
            <path d="M0.265,-0.588L0.155,-0.588L0.155,-0.754L0.461,-0.754L0.461,-0L0.265,-0L0.265,-0.588Z" style="fill-rule:nonzero;"/>
        </g>
        <g transform="matrix(41.6667,0,0,41.6667,1094.32,329.526)">
            <path d="M0.635,-0L0.028,-0L0.215,-0.194C0.264,-0.245 0.303,-0.289 0.331,-0.325C0.359,-0.36 0.38,-0.39 0.394,-0.415C0.407,-0.44 0.416,-0.46 0.419,-0.475C0.422,-0.49 0.424,-0.503 0.424,-0.514C0.424,-0.525 0.422,-0.536 0.419,-0.547C0.415,-0.558 0.409,-0.567 0.402,-0.576C0.395,-0.584 0.386,-0.591 0.376,-0.596C0.365,-0.6 0.353,-0.603 0.339,-0.603C0.312,-0.603 0.292,-0.594 0.277,-0.577C0.262,-0.56 0.254,-0.538 0.254,-0.512C0.254,-0.505 0.255,-0.494 0.257,-0.48L0.043,-0.48C0.043,-0.524 0.05,-0.564 0.065,-0.6C0.079,-0.636 0.099,-0.667 0.125,-0.693C0.151,-0.719 0.182,-0.739 0.218,-0.753C0.253,-0.767 0.292,-0.774 0.335,-0.774C0.377,-0.774 0.416,-0.767 0.452,-0.754C0.487,-0.741 0.518,-0.722 0.544,-0.698C0.57,-0.674 0.59,-0.646 0.605,-0.613C0.62,-0.58 0.627,-0.544 0.627,-0.505C0.627,-0.464 0.618,-0.426 0.601,-0.391C0.583,-0.356 0.555,-0.32 0.516,-0.283L0.391,-0.166L0.635,-0.166L0.635,-0Z" style="fill-rule:nonzero;"/>
        </g>
        <g transform="matrix(41.6667,0,0,41.6667,1094.32,379.526)">
            <path d="M0.299,-0.46C0.304,-0.459 0.309,-0.459 0.313,-0.459L0.322,-0.459C0.347,-0.459 0.367,-0.466 0.382,-0.481C0.397,-0.496 0.405,-0.515 0.405,-0.538C0.405,-0.561 0.398,-0.579 0.384,-0.593C0.369,-0.607 0.351,-0.614 0.328,-0.614C0.304,-0.614 0.285,-0.606 0.27,-0.59C0.255,-0.574 0.248,-0.553 0.248,-0.528L0.067,-0.528C0.072,-0.567 0.082,-0.602 0.097,-0.633C0.112,-0.664 0.131,-0.69 0.154,-0.711C0.177,-0.732 0.205,-0.748 0.236,-0.759C0.267,-0.77 0.302,-0.775 0.34,-0.775C0.377,-0.775 0.411,-0.77 0.442,-0.76C0.472,-0.749 0.498,-0.735 0.52,-0.716C0.541,-0.697 0.558,-0.674 0.57,-0.647C0.581,-0.619 0.587,-0.589 0.587,-0.556C0.587,-0.52 0.58,-0.491 0.567,-0.468C0.553,-0.444 0.533,-0.425 0.508,-0.408C0.547,-0.396 0.577,-0.375 0.599,-0.344C0.62,-0.313 0.631,-0.274 0.631,-0.229C0.631,-0.192 0.624,-0.158 0.609,-0.127C0.594,-0.096 0.574,-0.07 0.548,-0.048C0.521,-0.026 0.49,-0.009 0.454,0.003C0.417,0.015 0.377,0.021 0.334,0.021C0.276,0.021 0.224,0.01 0.177,-0.013C0.13,-0.036 0.093,-0.072 0.065,-0.121C0.052,-0.143 0.044,-0.165 0.04,-0.187C0.035,-0.209 0.033,-0.231 0.033,-0.254L0.227,-0.254C0.228,-0.219 0.239,-0.192 0.258,-0.174C0.277,-0.155 0.303,-0.146 0.336,-0.146C0.371,-0.146 0.396,-0.155 0.412,-0.174C0.428,-0.193 0.436,-0.216 0.436,-0.243C0.436,-0.276 0.426,-0.3 0.407,-0.317C0.388,-0.334 0.365,-0.342 0.338,-0.342C0.331,-0.342 0.325,-0.342 0.319,-0.341C0.313,-0.339 0.306,-0.338 0.299,-0.337L0.299,-0.46Z" style="fill-rule:nonzero;"/>
        </g>
    </g>
    <g transform="matrix(1,0,0,1,-777.782,-225.454)">
        <g transform="matrix(41.6667,0,0,41.6667,1094.32,279.526)">
            <path d="M0.378,-0.305L0.378,-0.602L0.205,-0.305L0.378,-0.305ZM0.56,-0.305L0.651,-0.305L0.651,-0.155L0.56,-0.155L0.56,-0L0.378,-0L0.378,-0.155L0.014,-0.155L0.014,-0.281L0.302,-0.754L0.56,-0.754L0.56,-0.305Z" style="fill-rule:nonzero;"/>
        </g>
        <g transform="matrix(41.6667,0,0,41.6667,1094.32,329.526)">
            <path d="M0.56,-0.588L0.299,-0.588L0.286,-0.505C0.298,-0.506 0.309,-0.507 0.319,-0.509C0.329,-0.51 0.339,-0.51 0.35,-0.51C0.388,-0.51 0.423,-0.503 0.456,-0.49C0.489,-0.477 0.517,-0.458 0.54,-0.435C0.563,-0.412 0.582,-0.384 0.595,-0.351C0.608,-0.318 0.615,-0.283 0.615,-0.244C0.615,-0.203 0.608,-0.167 0.593,-0.134C0.578,-0.101 0.556,-0.074 0.529,-0.051C0.502,-0.028 0.468,-0.01 0.429,0.003C0.39,0.015 0.346,0.021 0.298,0.021C0.253,0.021 0.21,0.016 0.169,0.005C0.128,-0.007 0.089,-0.023 0.053,-0.046L0.082,-0.23C0.115,-0.201 0.149,-0.18 0.184,-0.165C0.219,-0.15 0.252,-0.142 0.283,-0.142C0.323,-0.142 0.355,-0.153 0.378,-0.175C0.401,-0.196 0.413,-0.223 0.413,-0.255C0.413,-0.292 0.397,-0.323 0.366,-0.346C0.335,-0.369 0.294,-0.38 0.243,-0.38C0.22,-0.38 0.197,-0.378 0.173,-0.373C0.149,-0.368 0.125,-0.36 0.102,-0.349L0.165,-0.754L0.56,-0.754L0.56,-0.588Z" style="fill-rule:nonzero;"/>
        </g>
        <g transform="matrix(41.6667,0,0,41.6667,1094.32,379.526)">
            <path d="M0.539,-0.754L0.325,-0.508L0.329,-0.508C0.348,-0.519 0.363,-0.526 0.375,-0.529C0.387,-0.531 0.398,-0.532 0.407,-0.532C0.444,-0.532 0.477,-0.525 0.508,-0.511C0.539,-0.497 0.565,-0.478 0.588,-0.454C0.611,-0.429 0.628,-0.401 0.641,-0.368C0.654,-0.335 0.66,-0.3 0.66,-0.263C0.66,-0.223 0.653,-0.186 0.638,-0.152C0.623,-0.117 0.602,-0.087 0.575,-0.062C0.547,-0.036 0.513,-0.016 0.474,-0.001C0.435,0.014 0.39,0.021 0.341,0.021C0.291,0.021 0.246,0.014 0.207,-0.001C0.168,-0.016 0.134,-0.036 0.107,-0.061C0.079,-0.086 0.058,-0.116 0.043,-0.15C0.028,-0.183 0.021,-0.219 0.021,-0.257C0.021,-0.3 0.031,-0.346 0.05,-0.396C0.069,-0.445 0.098,-0.494 0.137,-0.542L0.312,-0.754L0.539,-0.754ZM0.215,-0.259C0.215,-0.242 0.218,-0.226 0.225,-0.211C0.232,-0.196 0.241,-0.182 0.252,-0.171C0.263,-0.16 0.277,-0.151 0.292,-0.144C0.307,-0.137 0.323,-0.134 0.34,-0.134C0.357,-0.134 0.374,-0.137 0.389,-0.144C0.404,-0.151 0.417,-0.16 0.428,-0.171C0.439,-0.182 0.448,-0.196 0.455,-0.211C0.462,-0.226 0.465,-0.242 0.465,-0.259C0.465,-0.276 0.462,-0.293 0.455,-0.308C0.448,-0.323 0.439,-0.336 0.428,-0.347C0.417,-0.358 0.404,-0.367 0.389,-0.374C0.374,-0.381 0.357,-0.384 0.34,-0.384C0.323,-0.384 0.307,-0.381 0.292,-0.374C0.277,-0.367 0.263,-0.358 0.252,-0.347C0.241,-0.336 0.232,-0.323 0.225,-0.308C0.218,-0.293 0.215,-0.276 0.215,-0.259Z" style="fill-rule:nonzero;"/>
        </g>
    </g>
    <g transform="matrix(1,0,0,1,-600.617,-225.454)">
        <g transform="matrix(41.6667,0,0,41.6667,1094.32,279.526)">
            <path d="M0.395,-0.588L0.08,-0.588L0.08,-0.754L0.699,-0.754L0.267,-0L0.051,-0L0.395,-0.588Z" style="fill-rule:nonzero;"/>
        </g>
        <g transform="matrix(41.6667,0,0,41.6667,1094.32,329.526)">
            <path d="M0.25,-0.228C0.25,-0.215 0.252,-0.203 0.257,-0.192C0.262,-0.181 0.268,-0.171 0.276,-0.163C0.284,-0.154 0.294,-0.148 0.305,-0.143C0.316,-0.138 0.327,-0.135 0.34,-0.135C0.352,-0.135 0.364,-0.138 0.375,-0.143C0.386,-0.148 0.395,-0.154 0.404,-0.163C0.412,-0.171 0.418,-0.181 0.423,-0.192C0.428,-0.203 0.43,-0.214 0.43,-0.227C0.43,-0.252 0.421,-0.274 0.404,-0.292C0.386,-0.309 0.365,-0.318 0.34,-0.318C0.315,-0.318 0.293,-0.309 0.276,-0.292C0.259,-0.274 0.25,-0.253 0.25,-0.228ZM0.257,-0.562C0.257,-0.539 0.265,-0.519 0.281,-0.503C0.297,-0.486 0.317,-0.478 0.34,-0.478C0.352,-0.478 0.363,-0.48 0.373,-0.485C0.383,-0.49 0.392,-0.496 0.399,-0.504C0.406,-0.511 0.412,-0.52 0.417,-0.53C0.421,-0.54 0.423,-0.55 0.423,-0.561C0.423,-0.584 0.415,-0.603 0.399,-0.62C0.383,-0.636 0.363,-0.644 0.34,-0.644C0.317,-0.644 0.297,-0.636 0.281,-0.62C0.265,-0.604 0.257,-0.585 0.257,-0.562ZM0.201,-0.398C0.122,-0.431 0.083,-0.486 0.083,-0.564C0.083,-0.596 0.089,-0.625 0.102,-0.651C0.115,-0.676 0.132,-0.698 0.155,-0.717C0.177,-0.736 0.204,-0.75 0.236,-0.76C0.267,-0.77 0.302,-0.775 0.34,-0.775C0.378,-0.775 0.413,-0.77 0.445,-0.76C0.476,-0.75 0.503,-0.736 0.526,-0.717C0.548,-0.698 0.565,-0.676 0.578,-0.651C0.591,-0.625 0.597,-0.596 0.597,-0.564C0.597,-0.544 0.595,-0.526 0.591,-0.511C0.587,-0.495 0.58,-0.481 0.571,-0.468C0.561,-0.455 0.548,-0.442 0.533,-0.431C0.517,-0.42 0.497,-0.409 0.474,-0.398C0.577,-0.358 0.628,-0.293 0.628,-0.204C0.628,-0.172 0.621,-0.142 0.607,-0.115C0.592,-0.088 0.572,-0.064 0.547,-0.044C0.521,-0.024 0.491,-0.008 0.456,0.003C0.421,0.014 0.382,0.02 0.34,0.02C0.299,0.02 0.262,0.015 0.227,0.004C0.192,-0.008 0.161,-0.023 0.135,-0.043C0.109,-0.063 0.089,-0.087 0.074,-0.114C0.059,-0.141 0.052,-0.171 0.052,-0.204C0.052,-0.295 0.102,-0.36 0.201,-0.398Z" style="fill-rule:nonzero;"/>
        </g>
        <g transform="matrix(41.6667,0,0,41.6667,1094.32,379.526)">
            <path d="M0.141,-0L0.355,-0.246L0.351,-0.246C0.332,-0.235 0.317,-0.228 0.305,-0.226C0.293,-0.223 0.282,-0.222 0.273,-0.222C0.236,-0.222 0.203,-0.229 0.172,-0.243C0.14,-0.257 0.114,-0.276 0.092,-0.301C0.069,-0.325 0.052,-0.353 0.039,-0.386C0.026,-0.419 0.02,-0.454 0.02,-0.491C0.02,-0.531 0.027,-0.568 0.042,-0.603C0.057,-0.637 0.078,-0.667 0.106,-0.693C0.133,-0.718 0.167,-0.738 0.206,-0.753C0.245,-0.768 0.29,-0.775 0.339,-0.775C0.389,-0.775 0.434,-0.768 0.473,-0.753C0.512,-0.738 0.546,-0.718 0.574,-0.693C0.601,-0.668 0.622,-0.638 0.637,-0.605C0.652,-0.571 0.659,-0.535 0.659,-0.497C0.659,-0.454 0.65,-0.408 0.631,-0.359C0.612,-0.309 0.582,-0.26 0.543,-0.212L0.368,-0L0.141,-0ZM0.465,-0.495C0.465,-0.512 0.462,-0.529 0.455,-0.544C0.448,-0.559 0.439,-0.572 0.428,-0.583C0.417,-0.594 0.404,-0.603 0.389,-0.61C0.374,-0.617 0.357,-0.62 0.34,-0.62C0.323,-0.62 0.307,-0.617 0.292,-0.61C0.277,-0.603 0.263,-0.594 0.252,-0.583C0.241,-0.572 0.232,-0.559 0.225,-0.544C0.218,-0.529 0.215,-0.512 0.215,-0.495C0.215,-0.478 0.218,-0.462 0.225,-0.447C0.232,-0.432 0.241,-0.418 0.252,-0.407C0.263,-0.396 0.277,-0.387 0.292,-0.38C0.307,-0.373 0.323,-0.37 0.34,-0.37C0.357,-0.37 0.374,-0.373 0.389,-0.38C0.404,-0.387 0.417,-0.396 0.428,-0.407C0.439,-0.418 0.448,-0.432 0.455,-0.447C0.462,-0.462 0.465,-0.478 0.465,-0.495Z" style="fill-rule:nonzero;"/>
        </g>
    </g>
    <g transform="matrix(1,0,0,1,-423.452,-225.454)">
        <g transform="matrix(41.6667,0,0,41.6667,1080.99,279.526)">
            <path d="M0.265,-0.588L0.155,-0.588L0.155,-0.754L0.461,-0.754L0.461,-0L0.265,-0L0.265,-0.588Z" style="fill-rule:nonzero;"/>
        </g>
        <g transform="matrix(41.6667,0,0,41.6667,1107.66,279.526)">
            <path d="M0.214,-0.378C0.214,-0.345 0.217,-0.314 0.223,-0.287C0.229,-0.26 0.238,-0.236 0.249,-0.216C0.26,-0.196 0.273,-0.181 0.288,-0.17C0.303,-0.159 0.321,-0.153 0.34,-0.153C0.359,-0.153 0.376,-0.159 0.392,-0.17C0.407,-0.181 0.42,-0.196 0.431,-0.216C0.442,-0.236 0.45,-0.26 0.456,-0.287C0.462,-0.314 0.465,-0.345 0.465,-0.378C0.465,-0.411 0.462,-0.441 0.456,-0.469C0.45,-0.496 0.442,-0.52 0.431,-0.54C0.42,-0.559 0.407,-0.575 0.392,-0.586C0.376,-0.596 0.359,-0.602 0.34,-0.602C0.321,-0.602 0.303,-0.596 0.288,-0.586C0.273,-0.575 0.26,-0.559 0.249,-0.54C0.238,-0.52 0.229,-0.496 0.223,-0.469C0.217,-0.441 0.214,-0.411 0.214,-0.378ZM0.02,-0.378C0.02,-0.438 0.028,-0.493 0.044,-0.542C0.059,-0.591 0.081,-0.632 0.11,-0.667C0.138,-0.702 0.171,-0.729 0.211,-0.748C0.25,-0.767 0.293,-0.776 0.34,-0.776C0.387,-0.776 0.43,-0.767 0.469,-0.748C0.508,-0.729 0.542,-0.702 0.57,-0.667C0.598,-0.632 0.62,-0.591 0.636,-0.542C0.651,-0.493 0.659,-0.438 0.659,-0.378C0.659,-0.318 0.651,-0.264 0.636,-0.215C0.62,-0.166 0.598,-0.124 0.57,-0.089C0.542,-0.054 0.508,-0.027 0.469,-0.008C0.43,0.012 0.387,0.021 0.34,0.021C0.293,0.021 0.25,0.012 0.211,-0.008C0.171,-0.027 0.138,-0.054 0.11,-0.089C0.081,-0.124 0.059,-0.166 0.044,-0.215C0.028,-0.264 0.02,-0.318 0.02,-0.378Z" style="fill-rule:nonzero;"/>
        </g>
        <g transform="matrix(41.6667,0,0,41.6667,1082.66,329.526)">
            <path d="M0.265,-0.588L0.155,-0.588L0.155,-0.754L0.461,-0.754L0.461,-0L0.265,-0L0.265,-0.588Z" style="fill-rule:nonzero;"/>
        </g>
        <g transform="matrix(41.6667,0,0,41.6667,1105.99,329.526)">
            <path d="M0.265,-0.588L0.155,-0.588L0.155,-0.754L0.461,-0.754L0.461,-0L0.265,-0L0.265,-0.588Z" style="fill-rule:nonzero;"/>
        </g>
        <g transform="matrix(41.6667,0,0,41.6667,1081.57,379.526)">
            <path d="M0.265,-0.588L0.155,-0.588L0.155,-0.754L0.461,-0.754L0.461,-0L0.265,-0L0.265,-0.588Z" style="fill-rule:nonzero;"/>
        </g>
        <g transform="matrix(41.6667,0,0,41.6667,1107.07,379.526)">
            <path d="M0.635,-0L0.028,-0L0.215,-0.194C0.264,-0.245 0.303,-0.289 0.331,-0.325C0.359,-0.36 0.38,-0.39 0.394,-0.415C0.407,-0.44 0.416,-0.46 0.419,-0.475C0.422,-0.49 0.424,-0.503 0.424,-0.514C0.424,-0.525 0.422,-0.536 0.419,-0.547C0.415,-0.558 0.409,-0.567 0.402,-0.576C0.395,-0.584 0.386,-0.591 0.376,-0.596C0.365,-0.6 0.353,-0.603 0.339,-0.603C0.312,-0.603 0.292,-0.594 0.277,-0.577C0.262,-0.56 0.254,-0.538 0.254,-0.512C0.254,-0.505 0.255,-0.494 0.257,-0.48L0.043,-0.48C0.043,-0.524 0.05,-0.564 0.065,-0.6C0.079,-0.636 0.099,-0.667 0.125,-0.693C0.151,-0.719 0.182,-0.739 0.218,-0.753C0.253,-0.767 0.292,-0.774 0.335,-0.774C0.377,-0.774 0.416,-0.767 0.452,-0.754C0.487,-0.741 0.518,-0.722 0.544,-0.698C0.57,-0.674 0.59,-0.646 0.605,-0.613C0.62,-0.58 0.627,-0.544 0.627,-0.505C0.627,-0.464 0.618,-0.426 0.601,-0.391C0.583,-0.356 0.555,-0.32 0.516,-0.283L0.391,-0.166L0.635,-0.166L0.635,-0Z" style="fill-rule:nonzero;"/>
        </g>
    </g>
    <g transform="matrix(1,0,0,1,-246.286,-225.454)">
        <g transform="matrix(41.6667,0,0,41.6667,1081.37,279.526)">
            <path d="M0.265,-0.588L0.155,-0.588L0.155,-0.754L0.461,-0.754L0.461,-0L0.265,-0L0.265,-0.588Z" style="fill-rule:nonzero;"/>
        </g>
        <g transform="matrix(41.6667,0,0,41.6667,1107.28,279.526)">
            <path d="M0.299,-0.46C0.304,-0.459 0.309,-0.459 0.313,-0.459L0.322,-0.459C0.347,-0.459 0.367,-0.466 0.382,-0.481C0.397,-0.496 0.405,-0.515 0.405,-0.538C0.405,-0.561 0.398,-0.579 0.384,-0.593C0.369,-0.607 0.351,-0.614 0.328,-0.614C0.304,-0.614 0.285,-0.606 0.27,-0.59C0.255,-0.574 0.248,-0.553 0.248,-0.528L0.067,-0.528C0.072,-0.567 0.082,-0.602 0.097,-0.633C0.112,-0.664 0.131,-0.69 0.154,-0.711C0.177,-0.732 0.205,-0.748 0.236,-0.759C0.267,-0.77 0.302,-0.775 0.34,-0.775C0.377,-0.775 0.411,-0.77 0.442,-0.76C0.472,-0.749 0.498,-0.735 0.52,-0.716C0.541,-0.697 0.558,-0.674 0.57,-0.647C0.581,-0.619 0.587,-0.589 0.587,-0.556C0.587,-0.52 0.58,-0.491 0.567,-0.468C0.553,-0.444 0.533,-0.425 0.508,-0.408C0.547,-0.396 0.577,-0.375 0.599,-0.344C0.62,-0.313 0.631,-0.274 0.631,-0.229C0.631,-0.192 0.624,-0.158 0.609,-0.127C0.594,-0.096 0.574,-0.07 0.548,-0.048C0.521,-0.026 0.49,-0.009 0.454,0.003C0.417,0.015 0.377,0.021 0.334,0.021C0.276,0.021 0.224,0.01 0.177,-0.013C0.13,-0.036 0.093,-0.072 0.065,-0.121C0.052,-0.143 0.044,-0.165 0.04,-0.187C0.035,-0.209 0.033,-0.231 0.033,-0.254L0.227,-0.254C0.228,-0.219 0.239,-0.192 0.258,-0.174C0.277,-0.155 0.303,-0.146 0.336,-0.146C0.371,-0.146 0.396,-0.155 0.412,-0.174C0.428,-0.193 0.436,-0.216 0.436,-0.243C0.436,-0.276 0.426,-0.3 0.407,-0.317C0.388,-0.334 0.365,-0.342 0.338,-0.342C0.331,-0.342 0.325,-0.342 0.319,-0.341C0.313,-0.339 0.306,-0.338 0.299,-0.337L0.299,-0.46Z" style="fill-rule:nonzero;"/>
        </g>
        <g transform="matrix(41.6667,0,0,41.6667,1081.3,329.526)">
            <path d="M0.265,-0.588L0.155,-0.588L0.155,-0.754L0.461,-0.754L0.461,-0L0.265,-0L0.265,-0.588Z" style="fill-rule:nonzero;"/>
        </g>
        <g transform="matrix(41.6667,0,0,41.6667,1107.35,329.526)">
            <path d="M0.378,-0.305L0.378,-0.602L0.205,-0.305L0.378,-0.305ZM0.56,-0.305L0.651,-0.305L0.651,-0.155L0.56,-0.155L0.56,-0L0.378,-0L0.378,-0.155L0.014,-0.155L0.014,-0.281L0.302,-0.754L0.56,-0.754L0.56,-0.305Z" style="fill-rule:nonzero;"/>
        </g>
        <g transform="matrix(41.6667,0,0,41.6667,1081.47,379.526)">
            <path d="M0.265,-0.588L0.155,-0.588L0.155,-0.754L0.461,-0.754L0.461,-0L0.265,-0L0.265,-0.588Z" style="fill-rule:nonzero;"/>
        </g>
        <g transform="matrix(41.6667,0,0,41.6667,1107.18,379.526)">
            <path d="M0.56,-0.588L0.299,-0.588L0.286,-0.505C0.298,-0.506 0.309,-0.507 0.319,-0.509C0.329,-0.51 0.339,-0.51 0.35,-0.51C0.388,-0.51 0.423,-0.503 0.456,-0.49C0.489,-0.477 0.517,-0.458 0.54,-0.435C0.563,-0.412 0.582,-0.384 0.595,-0.351C0.608,-0.318 0.615,-0.283 0.615,-0.244C0.615,-0.203 0.608,-0.167 0.593,-0.134C0.578,-0.101 0.556,-0.074 0.529,-0.051C0.502,-0.028 0.468,-0.01 0.429,0.003C0.39,0.015 0.346,0.021 0.298,0.021C0.253,0.021 0.21,0.016 0.169,0.005C0.128,-0.007 0.089,-0.023 0.053,-0.046L0.082,-0.23C0.115,-0.201 0.149,-0.18 0.184,-0.165C0.219,-0.15 0.252,-0.142 0.283,-0.142C0.323,-0.142 0.355,-0.153 0.378,-0.175C0.401,-0.196 0.413,-0.223 0.413,-0.255C0.413,-0.292 0.397,-0.323 0.366,-0.346C0.335,-0.369 0.294,-0.38 0.243,-0.38C0.22,-0.38 0.197,-0.378 0.173,-0.373C0.149,-0.368 0.125,-0.36 0.102,-0.349L0.165,-0.754L0.56,-0.754L0.56,-0.588Z" style="fill-rule:nonzero;"/>
        </g>
    </g>
    <g transform="matrix(1,0,0,1,-69.1209,-225.454)">
        <g transform="matrix(41.6667,0,0,41.6667,1081.28,279.526)">
            <path d="M0.265,-0.588L0.155,-0.588L0.155,-0.754L0.461,-0.754L0.461,-0L0.265,-0L0.265,-0.588Z" style="fill-rule:nonzero;"/>
        </g>
        <g transform="matrix(41.6667,0,0,41.6667,1107.37,279.526)">
            <path d="M0.539,-0.754L0.325,-0.508L0.329,-0.508C0.348,-0.519 0.363,-0.526 0.375,-0.529C0.387,-0.531 0.398,-0.532 0.407,-0.532C0.444,-0.532 0.477,-0.525 0.508,-0.511C0.539,-0.497 0.565,-0.478 0.588,-0.454C0.611,-0.429 0.628,-0.401 0.641,-0.368C0.654,-0.335 0.66,-0.3 0.66,-0.263C0.66,-0.223 0.653,-0.186 0.638,-0.152C0.623,-0.117 0.602,-0.087 0.575,-0.062C0.547,-0.036 0.513,-0.016 0.474,-0.001C0.435,0.014 0.39,0.021 0.341,0.021C0.291,0.021 0.246,0.014 0.207,-0.001C0.168,-0.016 0.134,-0.036 0.107,-0.061C0.079,-0.086 0.058,-0.116 0.043,-0.15C0.028,-0.183 0.021,-0.219 0.021,-0.257C0.021,-0.3 0.031,-0.346 0.05,-0.396C0.069,-0.445 0.098,-0.494 0.137,-0.542L0.312,-0.754L0.539,-0.754ZM0.215,-0.259C0.215,-0.242 0.218,-0.226 0.225,-0.211C0.232,-0.196 0.241,-0.182 0.252,-0.171C0.263,-0.16 0.277,-0.151 0.292,-0.144C0.307,-0.137 0.323,-0.134 0.34,-0.134C0.357,-0.134 0.374,-0.137 0.389,-0.144C0.404,-0.151 0.417,-0.16 0.428,-0.171C0.439,-0.182 0.448,-0.196 0.455,-0.211C0.462,-0.226 0.465,-0.242 0.465,-0.259C0.465,-0.276 0.462,-0.293 0.455,-0.308C0.448,-0.323 0.439,-0.336 0.428,-0.347C0.417,-0.358 0.404,-0.367 0.389,-0.374C0.374,-0.381 0.357,-0.384 0.34,-0.384C0.323,-0.384 0.307,-0.381 0.292,-0.374C0.277,-0.367 0.263,-0.358 0.252,-0.347C0.241,-0.336 0.232,-0.323 0.225,-0.308C0.218,-0.293 0.215,-0.276 0.215,-0.259Z" style="fill-rule:nonzero;"/>
        </g>
        <g transform="matrix(41.6667,0,0,41.6667,1081.78,329.526)">
            <path d="M0.265,-0.588L0.155,-0.588L0.155,-0.754L0.461,-0.754L0.461,-0L0.265,-0L0.265,-0.588Z" style="fill-rule:nonzero;"/>
        </g>
        <g transform="matrix(41.6667,0,0,41.6667,1106.87,329.526)">
            <path d="M0.395,-0.588L0.08,-0.588L0.08,-0.754L0.699,-0.754L0.267,-0L0.051,-0L0.395,-0.588Z" style="fill-rule:nonzero;"/>
        </g>
        <g transform="matrix(41.6667,0,0,41.6667,1081.39,379.526)">
            <path d="M0.265,-0.588L0.155,-0.588L0.155,-0.754L0.461,-0.754L0.461,-0L0.265,-0L0.265,-0.588Z" style="fill-rule:nonzero;"/>
        </g>
        <g transform="matrix(41.6667,0,0,41.6667,1107.26,379.526)">
            <path d="M0.25,-0.228C0.25,-0.215 0.252,-0.203 0.257,-0.192C0.262,-0.181 0.268,-0.171 0.276,-0.163C0.284,-0.154 0.294,-0.148 0.305,-0.143C0.316,-0.138 0.327,-0.135 0.34,-0.135C0.352,-0.135 0.364,-0.138 0.375,-0.143C0.386,-0.148 0.395,-0.154 0.404,-0.163C0.412,-0.171 0.418,-0.181 0.423,-0.192C0.428,-0.203 0.43,-0.214 0.43,-0.227C0.43,-0.252 0.421,-0.274 0.404,-0.292C0.386,-0.309 0.365,-0.318 0.34,-0.318C0.315,-0.318 0.293,-0.309 0.276,-0.292C0.259,-0.274 0.25,-0.253 0.25,-0.228ZM0.257,-0.562C0.257,-0.539 0.265,-0.519 0.281,-0.503C0.297,-0.486 0.317,-0.478 0.34,-0.478C0.352,-0.478 0.363,-0.48 0.373,-0.485C0.383,-0.49 0.392,-0.496 0.399,-0.504C0.406,-0.511 0.412,-0.52 0.417,-0.53C0.421,-0.54 0.423,-0.55 0.423,-0.561C0.423,-0.584 0.415,-0.603 0.399,-0.62C0.383,-0.636 0.363,-0.644 0.34,-0.644C0.317,-0.644 0.297,-0.636 0.281,-0.62C0.265,-0.604 0.257,-0.585 0.257,-0.562ZM0.201,-0.398C0.122,-0.431 0.083,-0.486 0.083,-0.564C0.083,-0.596 0.089,-0.625 0.102,-0.651C0.115,-0.676 0.132,-0.698 0.155,-0.717C0.177,-0.736 0.204,-0.75 0.236,-0.76C0.267,-0.77 0.302,-0.775 0.34,-0.775C0.378,-0.775 0.413,-0.77 0.445,-0.76C0.476,-0.75 0.503,-0.736 0.526,-0.717C0.548,-0.698 0.565,-0.676 0.578,-0.651C0.591,-0.625 0.597,-0.596 0.597,-0.564C0.597,-0.544 0.595,-0.526 0.591,-0.511C0.587,-0.495 0.58,-0.481 0.571,-0.468C0.561,-0.455 0.548,-0.442 0.533,-0.431C0.517,-0.42 0.497,-0.409 0.474,-0.398C0.577,-0.358 0.628,-0.293 0.628,-0.204C0.628,-0.172 0.621,-0.142 0.607,-0.115C0.592,-0.088 0.572,-0.064 0.547,-0.044C0.521,-0.024 0.491,-0.008 0.456,0.003C0.421,0.014 0.382,0.02 0.34,0.02C0.299,0.02 0.262,0.015 0.227,0.004C0.192,-0.008 0.161,-0.023 0.135,-0.043C0.109,-0.063 0.089,-0.087 0.074,-0.114C0.059,-0.141 0.052,-0.171 0.052,-0.204C0.052,-0.295 0.102,-0.36 0.201,-0.398Z" style="fill-rule:nonzero;"/>
        </g>
    </g>
    <g transform="matrix(1,0,0,1,-263.927,258.407)">
        <g transform="matrix(41.6667,0,0,41.6667,1081.17,279.526)">
            <path d="M0.508,-0.588L0.275,-0.588L0.275,-0.462L0.495,-0.462L0.495,-0.296L0.275,-0.296L0.275,-0.166L0.508,-0.166L0.508,-0L0.079,-0L0.079,-0.754L0.508,-0.754L0.508,-0.588Z" style="fill-rule:nonzero;"/>
        </g>
        <g transform="matrix(41.6667,0,0,41.6667,1104.92,279.526)">
            <path d="M0.079,-0L0.079,-0.754L0.275,-0.754L0.637,-0.293L0.637,-0.754L0.832,-0.754L0.832,-0L0.637,-0L0.275,-0.461L0.275,-0L0.079,-0Z" style="fill-rule:nonzero;"/>
        </g>
        <g transform="matrix(41.6667,0,0,41.6667,1143.3,279.526)">
            <path d="M0.622,-0.502C0.577,-0.557 0.521,-0.585 0.454,-0.585C0.425,-0.585 0.398,-0.58 0.373,-0.569C0.347,-0.558 0.326,-0.544 0.308,-0.526C0.29,-0.507 0.276,-0.485 0.266,-0.46C0.255,-0.435 0.25,-0.407 0.25,-0.378C0.25,-0.348 0.255,-0.32 0.266,-0.295C0.276,-0.27 0.29,-0.248 0.309,-0.229C0.327,-0.21 0.348,-0.196 0.373,-0.185C0.398,-0.174 0.424,-0.169 0.453,-0.169C0.516,-0.169 0.572,-0.196 0.622,-0.249L0.622,-0.017L0.602,-0.01C0.572,0.001 0.544,0.009 0.518,0.014C0.492,0.019 0.466,0.021 0.441,0.021C0.389,0.021 0.339,0.011 0.292,-0.009C0.244,-0.028 0.202,-0.056 0.166,-0.092C0.129,-0.127 0.1,-0.169 0.078,-0.219C0.056,-0.268 0.045,-0.321 0.045,-0.379C0.045,-0.437 0.056,-0.49 0.078,-0.539C0.099,-0.587 0.128,-0.628 0.165,-0.664C0.201,-0.699 0.243,-0.726 0.291,-0.746C0.339,-0.765 0.389,-0.775 0.442,-0.775C0.472,-0.775 0.501,-0.772 0.531,-0.766C0.56,-0.759 0.59,-0.749 0.622,-0.736L0.622,-0.502Z" style="fill-rule:nonzero;"/>
        </g>
        <g transform="matrix(41.6667,0,0,41.6667,1098.94,329.526)">
            <path d="M0.265,-0.588L0.155,-0.588L0.155,-0.754L0.461,-0.754L0.461,-0L0.265,-0L0.265,-0.588Z" style="fill-rule:nonzero;"/>
        </g>
        <g transform="matrix(41.6667,0,0,41.6667,1124.99,329.526)">
            <path d="M0.141,-0L0.355,-0.246L0.351,-0.246C0.332,-0.235 0.317,-0.228 0.305,-0.226C0.293,-0.223 0.282,-0.222 0.273,-0.222C0.236,-0.222 0.203,-0.229 0.172,-0.243C0.14,-0.257 0.114,-0.276 0.092,-0.301C0.069,-0.325 0.052,-0.353 0.039,-0.386C0.026,-0.419 0.02,-0.454 0.02,-0.491C0.02,-0.531 0.027,-0.568 0.042,-0.603C0.057,-0.637 0.078,-0.667 0.106,-0.693C0.133,-0.718 0.167,-0.738 0.206,-0.753C0.245,-0.768 0.29,-0.775 0.339,-0.775C0.389,-0.775 0.434,-0.768 0.473,-0.753C0.512,-0.738 0.546,-0.718 0.574,-0.693C0.601,-0.668 0.622,-0.638 0.637,-0.605C0.652,-0.571 0.659,-0.535 0.659,-0.497C0.659,-0.454 0.65,-0.408 0.631,-0.359C0.612,-0.309 0.582,-0.26 0.543,-0.212L0.368,-0L0.141,-0ZM0.465,-0.495C0.465,-0.512 0.462,-0.529 0.455,-0.544C0.448,-0.559 0.439,-0.572 0.428,-0.583C0.417,-0.594 0.404,-0.603 0.389,-0.61C0.374,-0.617 0.357,-0.62 0.34,-0.62C0.323,-0.62 0.307,-0.617 0.292,-0.61C0.277,-0.603 0.263,-0.594 0.252,-0.583C0.241,-0.572 0.232,-0.559 0.225,-0.544C0.218,-0.529 0.215,-0.512 0.215,-0.495C0.215,-0.478 0.218,-0.462 0.225,-0.447C0.232,-0.432 0.241,-0.418 0.252,-0.407C0.263,-0.396 0.277,-0.387 0.292,-0.38C0.307,-0.373 0.323,-0.37 0.34,-0.37C0.357,-0.37 0.374,-0.373 0.389,-0.38C0.404,-0.387 0.417,-0.396 0.428,-0.407C0.439,-0.418 0.448,-0.432 0.455,-0.447C0.462,-0.462 0.465,-0.478 0.465,-0.495Z" style="fill-rule:nonzero;"/>
        </g>
    </g>
    <g transform="matrix(1,0,0,1,-85.545,258.407)">
        <g transform="matrix(41.6667,0,0,41.6667,1079.96,279.526)">
            <path d="M0.508,-0.588L0.275,-0.588L0.275,-0.462L0.495,-0.462L0.495,-0.296L0.275,-0.296L0.275,-0.166L0.508,-0.166L0.508,-0L0.079,-0L0.079,-0.754L0.508,-0.754L0.508,-0.588Z" style="fill-rule:nonzero;"/>
        </g>
        <g transform="matrix(41.6667,0,0,41.6667,1103.71,279.526)">
            <path d="M0.079,-0L0.079,-0.754L0.275,-0.754L0.637,-0.293L0.637,-0.754L0.832,-0.754L0.832,-0L0.637,-0L0.275,-0.461L0.275,-0L0.079,-0Z" style="fill-rule:nonzero;"/>
        </g>
        <g transform="matrix(41.6667,0,0,41.6667,1142.08,279.526)">
            <path d="M0.622,-0.502C0.577,-0.557 0.521,-0.585 0.454,-0.585C0.425,-0.585 0.398,-0.58 0.373,-0.569C0.347,-0.558 0.326,-0.544 0.308,-0.526C0.29,-0.507 0.276,-0.485 0.266,-0.46C0.255,-0.435 0.25,-0.407 0.25,-0.378C0.25,-0.348 0.255,-0.32 0.266,-0.295C0.276,-0.27 0.29,-0.248 0.309,-0.229C0.327,-0.21 0.348,-0.196 0.373,-0.185C0.398,-0.174 0.424,-0.169 0.453,-0.169C0.516,-0.169 0.572,-0.196 0.622,-0.249L0.622,-0.017L0.602,-0.01C0.572,0.001 0.544,0.009 0.518,0.014C0.492,0.019 0.466,0.021 0.441,0.021C0.389,0.021 0.339,0.011 0.292,-0.009C0.244,-0.028 0.202,-0.056 0.166,-0.092C0.129,-0.127 0.1,-0.169 0.078,-0.219C0.056,-0.268 0.045,-0.321 0.045,-0.379C0.045,-0.437 0.056,-0.49 0.078,-0.539C0.099,-0.587 0.128,-0.628 0.165,-0.664C0.201,-0.699 0.243,-0.726 0.291,-0.746C0.339,-0.765 0.389,-0.775 0.442,-0.775C0.472,-0.775 0.501,-0.772 0.531,-0.766C0.56,-0.759 0.59,-0.749 0.622,-0.736L0.622,-0.502Z" style="fill-rule:nonzero;"/>
        </g>
        <g transform="matrix(41.6667,0,0,41.6667,1096.58,329.526)">
            <path d="M0.635,-0L0.028,-0L0.215,-0.194C0.264,-0.245 0.303,-0.289 0.331,-0.325C0.359,-0.36 0.38,-0.39 0.394,-0.415C0.407,-0.44 0.416,-0.46 0.419,-0.475C0.422,-0.49 0.424,-0.503 0.424,-0.514C0.424,-0.525 0.422,-0.536 0.419,-0.547C0.415,-0.558 0.409,-0.567 0.402,-0.576C0.395,-0.584 0.386,-0.591 0.376,-0.596C0.365,-0.6 0.353,-0.603 0.339,-0.603C0.312,-0.603 0.292,-0.594 0.277,-0.577C0.262,-0.56 0.254,-0.538 0.254,-0.512C0.254,-0.505 0.255,-0.494 0.257,-0.48L0.043,-0.48C0.043,-0.524 0.05,-0.564 0.065,-0.6C0.079,-0.636 0.099,-0.667 0.125,-0.693C0.151,-0.719 0.182,-0.739 0.218,-0.753C0.253,-0.767 0.292,-0.774 0.335,-0.774C0.377,-0.774 0.416,-0.767 0.452,-0.754C0.487,-0.741 0.518,-0.722 0.544,-0.698C0.57,-0.674 0.59,-0.646 0.605,-0.613C0.62,-0.58 0.627,-0.544 0.627,-0.505C0.627,-0.464 0.618,-0.426 0.601,-0.391C0.583,-0.356 0.555,-0.32 0.516,-0.283L0.391,-0.166L0.635,-0.166L0.635,-0Z" style="fill-rule:nonzero;"/>
        </g>
        <g transform="matrix(41.6667,0,0,41.6667,1124.92,329.526)">
            <path d="M0.214,-0.378C0.214,-0.345 0.217,-0.314 0.223,-0.287C0.229,-0.26 0.238,-0.236 0.249,-0.216C0.26,-0.196 0.273,-0.181 0.288,-0.17C0.303,-0.159 0.321,-0.153 0.34,-0.153C0.359,-0.153 0.376,-0.159 0.392,-0.17C0.407,-0.181 0.42,-0.196 0.431,-0.216C0.442,-0.236 0.45,-0.26 0.456,-0.287C0.462,-0.314 0.465,-0.345 0.465,-0.378C0.465,-0.411 0.462,-0.441 0.456,-0.469C0.45,-0.496 0.442,-0.52 0.431,-0.54C0.42,-0.559 0.407,-0.575 0.392,-0.586C0.376,-0.596 0.359,-0.602 0.34,-0.602C0.321,-0.602 0.303,-0.596 0.288,-0.586C0.273,-0.575 0.26,-0.559 0.249,-0.54C0.238,-0.52 0.229,-0.496 0.223,-0.469C0.217,-0.441 0.214,-0.411 0.214,-0.378ZM0.02,-0.378C0.02,-0.438 0.028,-0.493 0.044,-0.542C0.059,-0.591 0.081,-0.632 0.11,-0.667C0.138,-0.702 0.171,-0.729 0.211,-0.748C0.25,-0.767 0.293,-0.776 0.34,-0.776C0.387,-0.776 0.43,-0.767 0.469,-0.748C0.508,-0.729 0.542,-0.702 0.57,-0.667C0.598,-0.632 0.62,-0.591 0.636,-0.542C0.651,-0.493 0.659,-0.438 0.659,-0.378C0.659,-0.318 0.651,-0.264 0.636,-0.215C0.62,-0.166 0.598,-0.124 0.57,-0.089C0.542,-0.054 0.508,-0.027 0.469,-0.008C0.43,0.012 0.387,0.021 0.34,0.021C0.293,0.021 0.25,0.012 0.211,-0.008C0.171,-0.027 0.138,-0.054 0.11,-0.089C0.081,-0.124 0.059,-0.166 0.044,-0.215C0.028,-0.264 0.02,-0.318 0.02,-0.378Z" style="fill-rule:nonzero;"/>
        </g>
    </g>
    <g transform="matrix(1.07115,0,0,0.205624,-1048.49,84.3127)">
        <path d="M1987.76,423.79C1987.76,428.545 1987.02,432.406 1986.11,432.406L1085.25,432.406C1084.34,432.406 1083.59,428.545 1083.59,423.79C1083.59,419.035 1084.34,415.174 1085.25,415.174L1986.11,415.174C1987.02,415.174 1987.76,419.035 1987.76,423.79Z"/>
    </g>
    <g transform="matrix(0.306893,0,0,0.205624,470.678,398.164)">
        <path d="M1987.76,423.79C1987.76,428.545 1985.18,432.406 1981.99,432.406L1089.37,432.406C1086.18,432.406 1083.59,428.545 1083.59,423.79C1083.59,419.035 1086.18,415.174 1089.37,415.174L1981.99,415.174C1985.18,415.174 1987.76,419.035 1987.76,423.79Z"/>
    </g>
    <g transform="matrix(1,0,0,1,-358.588,-139.989)">
        <g transform="matrix(62.5,0,0,62.5,1161.81,605.518)">
            <path d="M0.493,-0.561C0.472,-0.578 0.45,-0.591 0.429,-0.6C0.408,-0.608 0.387,-0.612 0.367,-0.612C0.342,-0.612 0.321,-0.606 0.305,-0.594C0.289,-0.582 0.281,-0.566 0.281,-0.547C0.281,-0.534 0.285,-0.523 0.293,-0.514C0.301,-0.505 0.312,-0.498 0.325,-0.492C0.338,-0.485 0.352,-0.48 0.369,-0.475C0.385,-0.47 0.401,-0.465 0.417,-0.46C0.481,-0.439 0.528,-0.41 0.558,-0.375C0.587,-0.339 0.602,-0.292 0.602,-0.235C0.602,-0.196 0.596,-0.161 0.583,-0.13C0.57,-0.099 0.551,-0.072 0.526,-0.05C0.501,-0.027 0.47,-0.01 0.434,0.003C0.397,0.015 0.356,0.021 0.31,0.021C0.215,0.021 0.126,-0.007 0.045,-0.064L0.129,-0.222C0.158,-0.196 0.187,-0.177 0.216,-0.164C0.245,-0.151 0.273,-0.145 0.301,-0.145C0.333,-0.145 0.357,-0.152 0.373,-0.167C0.388,-0.182 0.396,-0.198 0.396,-0.217C0.396,-0.228 0.394,-0.238 0.39,-0.247C0.386,-0.255 0.379,-0.263 0.37,-0.27C0.361,-0.277 0.349,-0.283 0.334,-0.289C0.319,-0.295 0.3,-0.302 0.279,-0.309C0.254,-0.317 0.229,-0.326 0.205,-0.336C0.18,-0.345 0.159,-0.358 0.14,-0.374C0.121,-0.39 0.105,-0.41 0.094,-0.435C0.082,-0.459 0.076,-0.49 0.076,-0.527C0.076,-0.564 0.082,-0.598 0.095,-0.629C0.107,-0.659 0.124,-0.685 0.147,-0.707C0.169,-0.728 0.196,-0.745 0.229,-0.757C0.261,-0.769 0.297,-0.775 0.337,-0.775C0.374,-0.775 0.413,-0.77 0.454,-0.76C0.495,-0.749 0.534,-0.734 0.571,-0.714L0.493,-0.561Z" style="fill-rule:nonzero;"/>
        </g>
        <g transform="matrix(62.5,0,0,62.5,1202.19,605.518)">
            <path d="M0.243,-0.513L0.243,-0.224C0.243,-0.161 0.274,-0.129 0.335,-0.129C0.396,-0.129 0.427,-0.161 0.427,-0.224L0.427,-0.513L0.608,-0.513L0.608,-0.189C0.608,-0.12 0.585,-0.068 0.54,-0.033C0.494,0.002 0.426,0.019 0.335,0.019C0.244,0.019 0.176,0.002 0.131,-0.033C0.085,-0.068 0.062,-0.12 0.062,-0.189L0.062,-0.513L0.243,-0.513Z" style="fill-rule:nonzero;"/>
        </g>
        <g transform="matrix(62.5,0,0,62.5,1244,605.518)">
            <path d="M0.243,-0.513L0.243,-0.224C0.243,-0.161 0.274,-0.129 0.335,-0.129C0.396,-0.129 0.427,-0.161 0.427,-0.224L0.427,-0.513L0.608,-0.513L0.608,-0.189C0.608,-0.12 0.585,-0.068 0.54,-0.033C0.494,0.002 0.426,0.019 0.335,0.019C0.244,0.019 0.176,0.002 0.131,-0.033C0.085,-0.068 0.062,-0.12 0.062,-0.189L0.062,-0.513L0.243,-0.513Z" style="fill-rule:nonzero;"/>
        </g>
        <g transform="matrix(62.5,0,0,62.5,1285.81,605.518)">
            <path d="M0.264,-0.362L0.264,-0L0.083,-0L0.083,-0.362L0.023,-0.362L0.023,-0.513L0.083,-0.513L0.083,-0.667L0.264,-0.667L0.264,-0.513L0.367,-0.513L0.367,-0.362L0.264,-0.362Z" style="fill-rule:nonzero;"/>
        </g>
        <g transform="matrix(62.5,0,0,62.5,1309.75,605.518)">
            <path d="M0.23,-0.258C0.23,-0.241 0.233,-0.226 0.239,-0.212C0.245,-0.197 0.253,-0.185 0.264,-0.174C0.274,-0.163 0.286,-0.155 0.301,-0.149C0.315,-0.143 0.33,-0.14 0.347,-0.14C0.363,-0.14 0.378,-0.143 0.393,-0.149C0.407,-0.155 0.419,-0.163 0.43,-0.174C0.44,-0.185 0.448,-0.197 0.455,-0.211C0.461,-0.225 0.464,-0.24 0.464,-0.256C0.464,-0.272 0.461,-0.287 0.455,-0.302C0.448,-0.316 0.44,-0.328 0.43,-0.339C0.419,-0.35 0.407,-0.358 0.393,-0.364C0.378,-0.37 0.363,-0.373 0.347,-0.373C0.33,-0.373 0.315,-0.37 0.301,-0.364C0.286,-0.358 0.274,-0.35 0.264,-0.339C0.253,-0.328 0.245,-0.316 0.239,-0.303C0.233,-0.289 0.23,-0.274 0.23,-0.258ZM0.458,-0.513L0.64,-0.513L0.64,-0L0.458,-0L0.458,-0.057C0.419,-0.008 0.367,0.016 0.301,0.016C0.264,0.016 0.229,0.009 0.198,-0.005C0.167,-0.018 0.139,-0.037 0.116,-0.062C0.093,-0.087 0.075,-0.116 0.062,-0.149C0.049,-0.182 0.042,-0.219 0.042,-0.258C0.042,-0.295 0.048,-0.329 0.061,-0.363C0.074,-0.396 0.091,-0.424 0.114,-0.449C0.137,-0.474 0.164,-0.493 0.195,-0.508C0.226,-0.522 0.261,-0.529 0.299,-0.529C0.363,-0.529 0.416,-0.507 0.458,-0.462L0.458,-0.513Z" style="fill-rule:nonzero;"/>
        </g>
        <g transform="matrix(62.5,0,0,62.5,1353.56,605.518)">
            <path d="M0.062,-0.513L0.243,-0.513L0.243,-0.429C0.262,-0.46 0.286,-0.483 0.314,-0.5C0.342,-0.516 0.375,-0.524 0.412,-0.524L0.428,-0.524C0.433,-0.524 0.44,-0.523 0.447,-0.522L0.447,-0.349C0.423,-0.361 0.397,-0.367 0.369,-0.367C0.327,-0.367 0.296,-0.355 0.275,-0.33C0.254,-0.305 0.243,-0.268 0.243,-0.22L0.243,-0L0.062,-0L0.062,-0.513Z" style="fill-rule:nonzero;"/>
        </g>
        <g transform="matrix(62.5,0,0,62.5,1382.69,605.518)">
            <path d="M0.243,-0.513L0.243,-0L0.062,-0L0.062,-0.513L0.243,-0.513ZM0.05,-0.71C0.05,-0.724 0.053,-0.737 0.058,-0.75C0.063,-0.762 0.071,-0.773 0.08,-0.782C0.089,-0.791 0.1,-0.799 0.113,-0.804C0.125,-0.809 0.138,-0.812 0.152,-0.812C0.166,-0.812 0.179,-0.809 0.192,-0.804C0.204,-0.799 0.215,-0.791 0.224,-0.782C0.233,-0.773 0.241,-0.762 0.246,-0.75C0.251,-0.737 0.254,-0.724 0.254,-0.71C0.254,-0.696 0.251,-0.683 0.246,-0.671C0.241,-0.658 0.233,-0.647 0.224,-0.638C0.215,-0.629 0.204,-0.621 0.192,-0.616C0.179,-0.611 0.166,-0.608 0.152,-0.608C0.138,-0.608 0.125,-0.611 0.113,-0.616C0.1,-0.621 0.089,-0.629 0.08,-0.638C0.071,-0.647 0.063,-0.658 0.058,-0.671C0.053,-0.683 0.05,-0.696 0.05,-0.71Z" style="fill-rule:nonzero;"/>
        </g>
        <g transform="matrix(62.5,0,0,62.5,1401.75,605.518)">
            <path d="M0.635,-0L0.028,-0L0.215,-0.194C0.264,-0.245 0.303,-0.289 0.331,-0.325C0.359,-0.36 0.38,-0.39 0.394,-0.415C0.407,-0.44 0.416,-0.46 0.419,-0.475C0.422,-0.49 0.424,-0.503 0.424,-0.514C0.424,-0.525 0.422,-0.536 0.419,-0.547C0.415,-0.558 0.409,-0.567 0.402,-0.576C0.395,-0.584 0.386,-0.591 0.376,-0.596C0.365,-0.6 0.353,-0.603 0.339,-0.603C0.312,-0.603 0.292,-0.594 0.277,-0.577C0.262,-0.56 0.254,-0.538 0.254,-0.512C0.254,-0.505 0.255,-0.494 0.257,-0.48L0.043,-0.48C0.043,-0.524 0.05,-0.564 0.065,-0.6C0.079,-0.636 0.099,-0.667 0.125,-0.693C0.151,-0.719 0.182,-0.739 0.218,-0.753C0.253,-0.767 0.292,-0.774 0.335,-0.774C0.377,-0.774 0.416,-0.767 0.452,-0.754C0.487,-0.741 0.518,-0.722 0.544,-0.698C0.57,-0.674 0.59,-0.646 0.605,-0.613C0.62,-0.58 0.627,-0.544 0.627,-0.505C0.627,-0.464 0.618,-0.426 0.601,-0.391C0.583,-0.356 0.555,-0.32 0.516,-0.283L0.391,-0.166L0.635,-0.166L0.635,-0Z" style="fill-rule:nonzero;"/>
        </g>
        <g transform="matrix(62.5,0,0,62.5,1444.25,605.518)">
            <path d="M0.214,-0.378C0.214,-0.345 0.217,-0.314 0.223,-0.287C0.229,-0.26 0.238,-0.236 0.249,-0.216C0.26,-0.196 0.273,-0.181 0.288,-0.17C0.303,-0.159 0.321,-0.153 0.34,-0.153C0.359,-0.153 0.376,-0.159 0.392,-0.17C0.407,-0.181 0.42,-0.196 0.431,-0.216C0.442,-0.236 0.45,-0.26 0.456,-0.287C0.462,-0.314 0.465,-0.345 0.465,-0.378C0.465,-0.411 0.462,-0.441 0.456,-0.469C0.45,-0.496 0.442,-0.52 0.431,-0.54C0.42,-0.559 0.407,-0.575 0.392,-0.586C0.376,-0.596 0.359,-0.602 0.34,-0.602C0.321,-0.602 0.303,-0.596 0.288,-0.586C0.273,-0.575 0.26,-0.559 0.249,-0.54C0.238,-0.52 0.229,-0.496 0.223,-0.469C0.217,-0.441 0.214,-0.411 0.214,-0.378ZM0.02,-0.378C0.02,-0.438 0.028,-0.493 0.044,-0.542C0.059,-0.591 0.081,-0.632 0.11,-0.667C0.138,-0.702 0.171,-0.729 0.211,-0.748C0.25,-0.767 0.293,-0.776 0.34,-0.776C0.387,-0.776 0.43,-0.767 0.469,-0.748C0.508,-0.729 0.542,-0.702 0.57,-0.667C0.598,-0.632 0.62,-0.591 0.636,-0.542C0.651,-0.493 0.659,-0.438 0.659,-0.378C0.659,-0.318 0.651,-0.264 0.636,-0.215C0.62,-0.166 0.598,-0.124 0.57,-0.089C0.542,-0.054 0.508,-0.027 0.469,-0.008C0.43,0.012 0.387,0.021 0.34,0.021C0.293,0.021 0.25,0.012 0.211,-0.008C0.171,-0.027 0.138,-0.054 0.11,-0.089C0.081,-0.124 0.059,-0.166 0.044,-0.215C0.028,-0.264 0.02,-0.318 0.02,-0.378Z" style="fill-rule:nonzero;"/>
        </g>
    </g>
</svg>
